<svg width="50" height="26" viewBox="0 0 50 26" fill="none" xmlns="http://www.w3.org/2000/svg">
<path d="M8.45508 21.9395L13.5527 0.40625H16.4004L17.0508 3.99219L11.6191 26H8.56055L8.45508 21.9395ZM5.83594 0.40625L10.0547 21.9395L9.70312 26H6.29297L0.615234 0.40625H5.83594ZM21.5332 21.8516L25.6992 0.40625H30.9199L25.2598 26H21.8496L21.5332 21.8516ZM18 0.40625L23.1328 22.0273L22.9922 26H19.9336L14.4668 3.97461L15.1699 0.40625H18ZM41.8746 0.40625V26H36.6187V0.40625H41.8746ZM49.7496 0.40625V4.53711H28.8668V0.40625H49.7496Z" fill="url(#paint0_linear_226_1128)"/>
<defs>
<linearGradient id="paint0_linear_226_1128" x1="25.5" y1="-7" x2="25.5" y2="26" gradientUnits="userSpaceOnUse">
<stop stop-color="#253D48" stop-opacity="0.75"/>
<stop offset="1" stop-color="#253D48"/>
</linearGradient>
</defs>
</svg>
