<svg width="132" height="32" viewBox="0 0 132 32" fill="none" xmlns="http://www.w3.org/2000/svg">
<path d="M7.81071 21.4252L12.8894 0H15.7265L16.3745 3.56794L10.963 25.4653H7.91579L7.81071 21.4252ZM5.2013 0L9.40438 21.4252L9.05412 25.4653H5.65664L0 0H5.2013ZM20.8402 21.3377L24.9908 0H30.1921L24.553 25.4653H21.1555L20.8402 21.3377ZM17.3202 0L22.4339 21.5126L22.2938 25.4653H19.2466L13.8001 3.55045L14.5006 0H17.3202Z" fill="white"/>
<path d="M38.0231 25.8151C36.552 25.8151 35.2327 25.5819 34.0652 25.1155C32.8977 24.6375 31.9053 23.9787 31.088 23.1392C30.2824 22.2997 29.6637 21.326 29.2317 20.2184C28.7997 19.099 28.5837 17.9097 28.5837 16.6504V15.9508C28.5837 14.5166 28.788 13.2049 29.1967 12.0156C29.6053 10.8263 30.189 9.79436 30.9479 8.91986C31.7185 8.04536 32.6525 7.37492 33.75 6.90852C34.8475 6.43046 36.085 6.19143 37.4627 6.19143C38.8053 6.19143 39.9962 6.41297 41.0353 6.85605C42.0744 7.29913 42.9442 7.92877 43.6447 8.74496C44.3569 9.56116 44.894 10.5406 45.2559 11.6833C45.6178 12.8143 45.7988 14.0736 45.7988 15.4611V17.5599H30.7378V14.2018H40.8427V13.817C40.8427 13.1174 40.7142 12.4936 40.4574 11.9456C40.2122 11.3859 39.8386 10.9429 39.3366 10.6164C38.8345 10.2899 38.1924 10.1267 37.4102 10.1267C36.7447 10.1267 36.1726 10.2724 35.6939 10.5639C35.2152 10.8554 34.8241 11.2635 34.5205 11.7882C34.2287 12.3129 34.0068 12.9309 33.8551 13.6421C33.715 14.3417 33.6449 15.1113 33.6449 15.9508V16.6504C33.6449 17.4083 33.75 18.1079 33.9601 18.7492C34.182 19.3905 34.4914 19.9443 34.8883 20.4107C35.2969 20.8771 35.7873 21.2386 36.3594 21.4951C36.9432 21.7516 37.6028 21.8799 38.3383 21.8799C39.249 21.8799 40.0955 21.705 40.8777 21.3552C41.6716 20.9937 42.3546 20.4516 42.9267 19.7286L45.3785 22.3871C44.9815 22.9584 44.4386 23.5065 43.7498 24.0312C43.0726 24.5559 42.2554 24.9873 41.298 25.3254C40.3406 25.6519 39.249 25.8151 38.0231 25.8151Z" fill="white"/>
<path d="M55.287 3.18317V25.4653H51.4714V3.18317H55.287ZM62.2899 3.18317V6.2439H44.5297V3.18317H62.2899Z" fill="white"/>
<path d="M68.192 25.7714C66.9661 25.7714 65.8577 25.5725 64.8667 25.1746C63.886 24.7665 63.0483 24.2002 62.3536 23.4758C61.6692 22.7515 61.1431 21.8996 60.7753 20.9201C60.4075 19.9407 60.2237 18.8847 60.2237 17.7523V17.1401C60.2237 15.8444 60.4127 14.6711 60.7906 13.6203C61.1686 12.5694 61.6947 11.6716 62.369 10.9268C63.0432 10.1718 63.8401 9.59541 64.7595 9.19751C65.6789 8.79962 66.6749 8.60067 67.7476 8.60067C68.9326 8.60067 69.9695 8.79962 70.8583 9.19751C71.7471 9.59541 72.4826 10.1565 73.0649 10.8809C73.6574 11.5951 74.0967 12.447 74.3828 13.4366C74.679 14.4263 74.8271 15.5179 74.8271 16.7116V18.2879H62.0165V15.6404H71.1801V15.3496C71.1597 14.6864 71.0269 14.0641 70.7817 13.4825C70.5467 12.901 70.1841 12.4317 69.6937 12.0746C69.2033 11.7175 68.5495 11.539 67.7323 11.539C67.1193 11.539 66.5728 11.6716 66.0926 11.9369C65.6227 12.1919 65.2294 12.5643 64.9127 13.054C64.596 13.5438 64.3508 14.1355 64.1772 14.8293C64.0137 15.5128 63.932 16.2831 63.932 17.1401V17.7523C63.932 18.4766 64.029 19.15 64.2231 19.7724C64.4275 20.3845 64.7237 20.9201 65.1119 21.3792C65.5001 21.8384 65.97 22.2005 66.5217 22.4658C67.0733 22.7209 67.7016 22.8484 68.4065 22.8484C69.2953 22.8484 70.087 22.6699 70.7817 22.3128C71.4764 21.9557 72.0791 21.4507 72.5899 20.7977L74.536 22.6801C74.1784 23.2004 73.7136 23.7003 73.1415 24.1798C72.5695 24.6491 71.8697 25.0317 71.0422 25.3276C70.2249 25.6235 69.2749 25.7714 68.192 25.7714Z" fill="white"/>
<path d="M84.4989 20.9813C84.4989 20.6141 84.4069 20.2825 84.223 19.9866C84.0392 19.6805 83.6867 19.4051 83.1657 19.1602C82.6549 18.9154 81.8989 18.6909 80.8978 18.4868C80.0192 18.293 79.2122 18.0634 78.4766 17.7982C77.7513 17.5227 77.1282 17.1911 76.6072 16.8034C76.0862 16.4158 75.6826 15.9566 75.3966 15.4261C75.1105 14.8956 74.9675 14.2834 74.9675 13.5897C74.9675 12.9163 75.1156 12.2787 75.4119 11.6767C75.7082 11.0748 76.1321 10.5442 76.6838 10.0851C77.2354 9.62602 77.9046 9.26383 78.6912 8.99857C79.488 8.7333 80.3768 8.60067 81.3575 8.60067C82.7468 8.60067 83.937 8.83533 84.9279 9.30464C85.9291 9.76375 86.6953 10.3912 87.2265 11.187C87.7577 11.9726 88.0233 12.8602 88.0233 13.8498H84.3303C84.3303 13.4111 84.2179 13.003 83.9932 12.6255C83.7786 12.2378 83.4517 11.9267 83.0125 11.692C82.5732 11.4472 82.0215 11.3247 81.3575 11.3247C80.7241 11.3247 80.198 11.4268 79.7792 11.6308C79.3705 11.8246 79.064 12.0797 78.8597 12.396C78.6656 12.7123 78.5686 13.0591 78.5686 13.4366C78.5686 13.7121 78.6197 13.9621 78.7218 14.1865C78.8342 14.4008 79.0181 14.5997 79.2735 14.7834C79.5289 14.9568 79.8762 15.12 80.3155 15.2731C80.765 15.4261 81.3269 15.574 82.0011 15.7169C83.2679 15.9821 84.3558 16.3239 85.265 16.7422C86.1845 17.1503 86.8894 17.6809 87.3797 18.3338C87.8701 18.9766 88.1153 19.7928 88.1153 20.7824C88.1153 21.517 87.9569 22.1903 87.6402 22.8025C87.3337 23.4044 86.8842 23.9299 86.2917 24.3788C85.6992 24.8175 84.9892 25.1593 84.1617 25.4041C83.3445 25.649 82.4251 25.7714 81.4035 25.7714C79.9017 25.7714 78.6299 25.5061 77.5879 24.9756C76.5459 24.4349 75.7541 23.7462 75.2127 22.9096C74.6815 22.0628 74.4159 21.1854 74.4159 20.2774H77.9863C78.0271 20.9609 78.2161 21.5068 78.5533 21.9149C78.9006 22.3128 79.3297 22.6035 79.8405 22.7872C80.3615 22.9606 80.8978 23.0473 81.4494 23.0473C82.1135 23.0473 82.6702 22.9606 83.1197 22.7872C83.5692 22.6035 83.9115 22.3587 84.1464 22.0526C84.3814 21.7363 84.4989 21.3792 84.4989 20.9813Z" fill="white"/>
<path d="M96.4385 8.90674V11.6002H87.091V8.90674H96.4385ZM89.788 4.85127H93.481V20.8895C93.481 21.3996 93.5525 21.7924 93.6955 22.0679C93.8488 22.3332 94.0582 22.5117 94.3238 22.6035C94.5894 22.6954 94.901 22.7413 95.2586 22.7413C95.514 22.7413 95.7591 22.726 95.9941 22.6954C96.2291 22.6648 96.4181 22.6341 96.5611 22.6035L96.5764 25.4194C96.2699 25.5112 95.9124 25.5929 95.5037 25.6643C95.1053 25.7357 94.6456 25.7714 94.1246 25.7714C93.2767 25.7714 92.5258 25.6235 91.872 25.3276C91.2182 25.0215 90.7074 24.5267 90.3396 23.8431C89.9719 23.1596 89.788 22.2516 89.788 21.1191V4.85127Z" fill="white"/>
<path d="M100.732 8.90674V25.4653H97.0232V8.90674H100.732ZM96.7781 4.5605C96.7781 3.99936 96.9619 3.53515 97.3297 3.16786C97.7077 2.79037 98.2287 2.60163 98.8927 2.60163C99.5465 2.60163 100.062 2.79037 100.44 3.16786C100.818 3.53515 101.007 3.99936 101.007 4.5605C101.007 5.11143 100.818 5.57054 100.44 5.93783C100.062 6.30512 99.5465 6.48876 98.8927 6.48876C98.2287 6.48876 97.7077 6.30512 97.3297 5.93783C96.9619 5.57054 96.7781 5.11143 96.7781 4.5605Z" fill="white"/>
<path d="M105.929 12.4419V25.4653H102.236V8.90674H105.714L105.929 12.4419ZM105.27 16.5739L104.075 16.5586C104.085 15.3853 104.248 14.3089 104.565 13.3295C104.892 12.3501 105.341 11.5084 105.913 10.8044C106.496 10.1004 107.19 9.5597 107.997 9.18221C108.805 8.79452 109.703 8.60067 110.694 8.60067C111.491 8.60067 112.211 8.7129 112.855 8.93735C113.509 9.1516 114.066 9.50359 114.525 9.99331C114.995 10.483 115.353 11.1207 115.598 11.9063C115.843 12.6817 115.966 13.6356 115.966 14.7681V25.4653H112.257V14.7528C112.257 13.957 112.14 13.3295 111.905 12.8704C111.68 12.4011 111.348 12.0695 110.909 11.8757C110.48 11.6716 109.944 11.5696 109.3 11.5696C108.667 11.5696 108.1 11.7022 107.599 11.9675C107.098 12.2327 106.675 12.5949 106.327 13.054C105.99 13.5132 105.73 14.0437 105.546 14.6456C105.362 15.2476 105.27 15.8903 105.27 16.5739Z" fill="white"/>
<path d="M127.844 8.90674H131.2V25.0062C131.2 26.4958 130.883 27.7609 130.25 28.8015C129.617 29.8422 128.733 30.6329 127.599 31.1736C126.465 31.7245 125.152 32 123.661 32C123.027 32 122.322 31.9082 121.546 31.7245C120.78 31.5409 120.034 31.245 119.309 30.8369C118.594 30.439 117.996 29.9136 117.516 29.2606L119.248 27.0875C119.84 27.7915 120.494 28.3067 121.209 28.6332C121.924 28.9597 122.675 29.1229 123.462 29.1229C124.309 29.1229 125.03 28.9648 125.622 28.6485C126.225 28.3424 126.69 27.8884 127.017 27.2865C127.344 26.6845 127.507 25.9499 127.507 25.0827V12.6561L127.844 8.90674ZM116.581 17.3697V17.0483C116.581 15.7934 116.734 14.6507 117.041 13.6203C117.347 12.5796 117.787 11.6869 118.359 10.9421C118.931 10.1872 119.626 9.61071 120.443 9.21282C121.26 8.80472 122.185 8.60067 123.216 8.60067C124.289 8.60067 125.203 8.79452 125.959 9.18221C126.725 9.5699 127.364 10.1259 127.875 10.8503C128.386 11.5645 128.784 12.4215 129.07 13.4213C129.366 14.411 129.586 15.5128 129.729 16.7269V17.7523C129.596 18.9358 129.371 20.0172 129.055 20.9967C128.738 21.9761 128.319 22.8229 127.798 23.5371C127.277 24.2512 126.634 24.8022 125.867 25.1899C125.111 25.5776 124.218 25.7714 123.186 25.7714C122.174 25.7714 121.26 25.5623 120.443 25.144C119.636 24.7257 118.941 24.139 118.359 23.384C117.787 22.629 117.347 21.7414 117.041 20.7212C116.734 19.6907 116.581 18.5736 116.581 17.3697ZM120.274 17.0483V17.3697C120.274 18.1247 120.346 18.8286 120.489 19.4816C120.642 20.1345 120.872 20.711 121.178 21.2109C121.495 21.7006 121.893 22.0883 122.374 22.374C122.864 22.6495 123.441 22.7872 124.105 22.7872C124.973 22.7872 125.683 22.6035 126.235 22.2363C126.797 21.869 127.226 21.3741 127.522 20.7518C127.829 20.1192 128.043 19.4153 128.166 18.6399V15.8699C128.105 15.268 127.977 14.7068 127.783 14.1865C127.599 13.6662 127.349 13.2122 127.032 12.8245C126.715 12.4266 126.317 12.1205 125.837 11.9063C125.357 11.6818 124.79 11.5696 124.136 11.5696C123.472 11.5696 122.895 11.7124 122.404 11.9981C121.914 12.2838 121.51 12.6766 121.194 13.1765C120.887 13.6764 120.657 14.2579 120.504 14.9211C120.351 15.5843 120.274 16.2933 120.274 17.0483Z" fill="white"/>
</svg>
